<svg width="22" height="24" viewBox="0 0 22 24" fill="none" xmlns="http://www.w3.org/2000/svg">
<path d="M2.95577 23.1999H18.3539C19.9681 23.1999 21.2799 21.8208 21.2799 20.1237V4.79462C21.2799 3.09759 19.9681 1.71848 18.3539 1.71848H17.1933V0.859238C17.1933 0.386643 16.8255 0 16.376 0C15.9265 0 15.5587 0.386643 15.5587 0.859238V1.71848H5.75099V0.859238C5.75099 0.386643 5.38316 0 4.93363 0C4.4841 0 4.11633 0.386643 4.11633 0.859238V1.71848H2.95577C1.34158 1.71848 0.0297852 3.09759 0.0297852 4.79462V20.1237C0.0297852 21.8208 1.34158 23.1999 2.95577 23.1999ZM1.66445 4.79462C1.66445 4.04709 2.24473 3.43703 2.95577 3.43703H4.11633V4.29626C4.11633 4.76886 4.4841 5.1555 4.93363 5.1555C5.38316 5.1555 5.75093 4.76886 5.75093 4.29626V3.43703H15.5587V4.29626C15.5587 4.76886 15.9265 5.1555 16.376 5.1555C16.8255 5.1555 17.1933 4.76886 17.1933 4.29626V3.43703H18.3538C19.0649 3.43703 19.6452 4.04709 19.6452 4.79462V20.1237C19.6452 20.8713 19.0649 21.4813 18.3538 21.4813H2.95577C2.24473 21.4813 1.66445 20.8713 1.66445 20.1237V4.79462Z" fill="black"/>
<path d="M5.9557 9.88125C6.51993 9.88125 6.97733 9.40038 6.97733 8.8072C6.97733 8.21402 6.51993 7.73315 5.9557 7.73315C5.39148 7.73315 4.93408 8.21402 4.93408 8.8072C4.93408 9.40038 5.39148 9.88125 5.9557 9.88125Z" fill="black"/>
<path d="M10.4508 9.88125C11.015 9.88125 11.4724 9.40038 11.4724 8.8072C11.4724 8.21402 11.015 7.73315 10.4508 7.73315C9.8866 7.73315 9.4292 8.21402 9.4292 8.8072C9.4292 9.40038 9.8866 9.88125 10.4508 9.88125Z" fill="black"/>
<path d="M14.9459 9.88125C15.5102 9.88125 15.9676 9.40038 15.9676 8.8072C15.9676 8.21402 15.5102 7.73315 14.9459 7.73315C14.3817 7.73315 13.9243 8.21402 13.9243 8.8072C13.9243 9.40038 14.3817 9.88125 14.9459 9.88125Z" fill="black"/>
<path d="M5.9557 14.1776C6.51993 14.1776 6.97733 13.6968 6.97733 13.1036C6.97733 12.5104 6.51993 12.0295 5.9557 12.0295C5.39148 12.0295 4.93408 12.5104 4.93408 13.1036C4.93408 13.6968 5.39148 14.1776 5.9557 14.1776Z" fill="black"/>
<path d="M10.4508 14.1776C11.015 14.1776 11.4724 13.6968 11.4724 13.1036C11.4724 12.5104 11.015 12.0295 10.4508 12.0295C9.8866 12.0295 9.4292 12.5104 9.4292 13.1036C9.4292 13.6968 9.8866 14.1776 10.4508 14.1776Z" fill="black"/>
<path d="M14.9459 14.1776C15.5102 14.1776 15.9676 13.6968 15.9676 13.1036C15.9676 12.5104 15.5102 12.0295 14.9459 12.0295C14.3817 12.0295 13.9243 12.5104 13.9243 13.1036C13.9243 13.6968 14.3817 14.1776 14.9459 14.1776Z" fill="black"/>
<path d="M5.9557 18.474C6.51993 18.474 6.97733 17.9932 6.97733 17.4C6.97733 16.8068 6.51993 16.3259 5.9557 16.3259C5.39148 16.3259 4.93408 16.8068 4.93408 17.4C4.93408 17.9932 5.39148 18.474 5.9557 18.474Z" fill="black"/>
<path d="M10.4508 18.474C11.015 18.474 11.4724 17.9932 11.4724 17.4C11.4724 16.8068 11.015 16.3259 10.4508 16.3259C9.8866 16.3259 9.4292 16.8068 9.4292 17.4C9.4292 17.9932 9.8866 18.474 10.4508 18.474Z" fill="black"/>
<path d="M14.9459 18.474C15.5102 18.474 15.9676 17.9932 15.9676 17.4C15.9676 16.8068 15.5102 16.3259 14.9459 16.3259C14.3817 16.3259 13.9243 16.8068 13.9243 17.4C13.9243 17.9932 14.3817 18.474 14.9459 18.474Z" fill="black"/>
</svg>
