<svg width="29" height="30" viewBox="0 0 29 30" fill="none" xmlns="http://www.w3.org/2000/svg">
<path fill-rule="evenodd" clip-rule="evenodd" d="M28.42 13.2H24.36V0.6C24.36 0.2688 24.1007 0 23.78 0H0.58C0.25984 0 0 0.2688 0 0.6V19.8C0 20.1318 0.25984 20.4 0.58 20.4H4.64V24.6C4.64 24.8214 4.75774 25.0248 4.94624 25.1292C5.03208 25.1766 5.12604 25.2 5.22 25.2C5.33252 25.2 5.44446 25.1658 5.5419 25.0992L12.3557 20.4H12.76V24.6C12.76 24.9318 13.0198 25.2 13.34 25.2H16.6443L23.4581 29.8992C23.555 29.9658 23.6675 30 23.78 30C23.874 30 23.9679 29.9766 24.0538 29.9292C24.2423 29.8248 24.36 29.6214 24.36 29.4V25.2H28.42C28.7407 25.2 29 24.9318 29 24.6V13.8C29 13.4688 28.7407 13.2 28.42 13.2ZM12.18 19.2C12.0657 19.2 11.9532 19.2354 11.8581 19.3008L5.8 23.4792V19.8C5.8 19.4682 5.54016 19.2 5.22 19.2H1.16V1.2H23.2V19.2H12.18ZM27.84 24H23.78C23.4593 24 23.2 24.2682 23.2 24.6V28.2792L17.1419 24.1008C17.0468 24.0354 16.9343 24 16.82 24H13.92V20.4H23.78C24.1007 20.4 24.36 20.1318 24.36 19.8V14.4H27.84V24Z" fill="black"/>
</svg>
