<svg width="30" height="30" viewBox="0 0 30 30" fill="none" xmlns="http://www.w3.org/2000/svg">
<path d="M15 0C6.72902 0 0 6.72902 0 15C0 23.271 6.72902 30 15 30C23.271 30 30 23.271 30 15C30 6.72902 23.271 0 15 0ZM15.9857 27.9915V25.9858C15.9857 25.4414 15.5444 25.0001 15 25.0001C14.4556 25.0001 14.0143 25.4414 14.0143 25.9858V27.9915C7.61448 27.5104 2.48957 22.3855 2.00853 15.9857H4.01418C4.55857 15.9857 4.99991 15.5444 4.99991 15C4.99991 14.4556 4.55857 14.0143 4.01418 14.0143H2.00853C2.48957 7.61448 7.61448 2.48957 14.0143 2.00853V4.01418C14.0143 4.55857 14.4556 4.99991 15 4.99991C15.5444 4.99991 15.9857 4.55857 15.9857 4.01418V2.00853C22.3855 2.48957 27.5104 7.61448 27.9915 14.0143H25.9858C25.4414 14.0143 25.0001 14.4556 25.0001 15C25.0001 15.5444 25.4414 15.9857 25.9858 15.9857H27.9915C27.5103 22.3855 22.3855 27.5103 15.9857 27.9915Z" fill="#000002"/>
<path d="M21.3687 14.0143H15.8611L11.4205 7.10676C11.126 6.64872 10.5162 6.51637 10.0583 6.81065C9.60036 7.10505 9.46774 7.71489 9.76215 8.17293L14.4937 15.5331C14.4951 15.5353 14.497 15.5372 14.4984 15.5395C14.5194 15.5716 14.542 15.6025 14.5665 15.6318C14.5727 15.6393 14.5795 15.6459 14.5861 15.6532C14.6045 15.6738 14.6234 15.694 14.6434 15.713C14.6539 15.723 14.6645 15.7326 14.6753 15.7421C14.6937 15.7581 14.7128 15.7733 14.7322 15.7879C14.7426 15.7957 14.7526 15.8038 14.7631 15.8111C14.7929 15.8317 14.8237 15.851 14.8558 15.8682C14.86 15.8705 14.8644 15.8723 14.8688 15.8745C14.8978 15.8897 14.9275 15.9032 14.9582 15.9154C14.9675 15.9191 14.9771 15.9224 14.9865 15.9258C15.0127 15.9353 15.0392 15.9437 15.0665 15.951C15.077 15.9538 15.0874 15.9566 15.0979 15.9591C15.1251 15.9655 15.1527 15.9704 15.1805 15.9744C15.1907 15.9759 15.2005 15.9778 15.2106 15.979C15.2453 15.983 15.2804 15.9852 15.316 15.9855C15.3187 15.9855 15.3212 15.9859 15.3237 15.9859C15.3242 15.9859 15.3248 15.9857 15.3255 15.9857H21.3686C21.913 15.9857 22.3543 15.5444 22.3543 15C22.3545 14.4556 21.9131 14.0143 21.3687 14.0143Z" fill="#000002"/>
</svg>
