<svg width="19" height="18" viewBox="0 0 19 18" fill="none" xmlns="http://www.w3.org/2000/svg">
<path d="M17.9941 4.43193L9.81893 0.0795108C9.72081 0.0273036 9.61136 0 9.50021 0C9.38906 0 9.27961 0.0273036 9.18148 0.0795108L0.968808 4.4531C0.671879 4.63444 0.426725 4.88927 0.257021 5.19299C0.0873169 5.49672 -0.00120221 5.83907 1.23317e-05 6.18699V15.6071C0.000605049 16.1468 0.215272 16.6643 0.596914 17.0459C0.978555 17.4276 1.496 17.6422 2.03573 17.6428H16.9643C17.504 17.6422 18.0215 17.4276 18.4031 17.0459C18.7847 16.6643 18.9994 16.1468 19 15.6071V6.18699C18.9996 5.8322 18.9066 5.48367 18.7301 5.17586C18.5537 4.86805 18.3 4.61162 17.9941 4.43193ZM12.4895 10.6964L17.6429 7.92155V14.3038L12.4895 10.6964ZM1.64344 5.63002L9.50001 1.44724L17.3195 5.60878C17.4186 5.66913 17.5005 5.75408 17.5571 5.85538C17.6138 5.95669 17.6433 6.07091 17.6429 6.18699V6.38058L9.50001 10.765L1.35715 6.38058V6.18699C1.35537 6.07776 1.38056 5.96978 1.4305 5.87263C1.48044 5.77547 1.55358 5.69214 1.64344 5.63002ZM1.35715 7.92155L6.51056 10.6964L1.35715 14.3038V7.92155ZM16.9643 16.2857H2.03573C1.91009 16.2848 1.78722 16.2488 1.68096 16.1817C1.57471 16.1147 1.4893 16.0193 1.43438 15.9063L7.84816 11.4167L9.17863 12.1328C9.27737 12.1861 9.38781 12.214 9.50001 12.214C9.6122 12.214 9.72264 12.1861 9.82138 12.1328L11.1519 11.4164L17.5656 15.906C17.5108 16.0191 17.4254 16.1145 17.3191 16.1816C17.2128 16.2487 17.0899 16.2847 16.9643 16.2857Z" fill="black"/>
</svg>
