<svg width="25" height="25" viewBox="0 0 25 25" fill="none" xmlns="http://www.w3.org/2000/svg">
<path d="M12.5013 22.9165C14.5615 22.9165 16.5755 22.3056 18.2885 21.161C20.0015 20.0164 21.3366 18.3895 22.125 16.4861C22.9135 14.5827 23.1197 12.4883 22.7178 10.4676C22.3159 8.44701 21.3238 6.59094 19.867 5.13414C18.4102 3.67734 16.5541 2.68525 14.5335 2.28332C12.5129 1.88139 10.4184 2.08768 8.51501 2.87609C6.61161 3.6645 4.98476 4.99963 3.84016 6.71265C2.69556 8.42566 2.08463 10.4396 2.08463 12.4998C2.08766 15.2616 3.1861 17.9093 5.13895 19.8622C7.0918 21.815 9.73956 22.9135 12.5013 22.9165ZM8.64088 9.6665L11.7659 6.5415C11.9612 6.34622 12.2261 6.23652 12.5023 6.23652C12.7786 6.23652 13.0435 6.34622 13.2388 6.5415L16.3638 9.6665C16.5535 9.86296 16.6585 10.1261 16.6562 10.3992C16.6538 10.6723 16.5442 10.9336 16.3511 11.1267C16.158 11.3199 15.8967 11.4294 15.6236 11.4318C15.3505 11.4342 15.0873 11.3292 14.8909 11.1394L13.543 9.7915L13.543 17.6988C13.543 17.9751 13.4332 18.24 13.2379 18.4354C13.0425 18.6307 12.7776 18.7405 12.5013 18.7405C12.225 18.7405 11.9601 18.6307 11.7647 18.4354C11.5694 18.24 11.4596 17.9751 11.4596 17.6988L11.4596 9.7915L10.1128 11.1384C9.91498 11.3204 9.65449 11.4189 9.38575 11.4134C9.11701 11.4078 8.86082 11.2986 8.67076 11.1085C8.48069 10.9184 8.37145 10.6622 8.36588 10.3935C8.36031 10.1248 8.45885 9.86428 8.64088 9.6665Z" fill="#A3A3A3"/>
</svg>
