<svg width="31" height="32" viewBox="0 0 31 32" fill="none" xmlns="http://www.w3.org/2000/svg">
<g clip-path="url(#clip0)">
<path d="M23.8088 30.08C23.8088 25.856 20.9568 22.4 17.1128 21.504V19.328C18.5388 18.624 19.5308 17.152 19.5308 15.36C19.5308 14.976 19.5308 13.568 19.5308 13.184C19.5308 10.752 17.6088 8.83203 15.3148 8.83203C12.9588 8.83203 11.0988 10.816 11.0988 13.184C11.0988 13.568 11.0988 14.976 11.0988 15.36C11.0988 17.088 12.0908 18.56 13.4548 19.264V21.504C9.67281 22.4 6.88281 25.92 6.88281 30.08H23.8088Z" stroke="black" stroke-width="2" stroke-miterlimit="10"/>
<path d="M19.5932 11.904C20.2132 11.52 20.8332 11.2 21.5772 11.072V9.40801C20.5232 8.89601 19.7792 7.74402 19.7792 6.46402C19.7792 6.20802 19.7792 5.12002 19.7792 4.80002C19.7792 3.00802 21.2052 1.47202 23.0032 1.47202C24.7392 1.47202 26.2272 2.94402 26.2272 4.80002C26.2272 5.05602 26.2272 6.14402 26.2272 6.46402C26.2272 7.80802 25.4832 8.89601 24.3672 9.40801V11.072C27.2812 11.712 29.3892 14.336 29.3892 17.536H19.0352" stroke="black" stroke-width="2" stroke-miterlimit="10"/>
<path d="M11.2848 11.904C10.6648 11.52 9.98278 11.2 9.30078 11.072V9.40801C10.3548 8.89601 11.1608 7.74402 11.1608 6.46402C11.1608 6.20802 11.1608 5.12002 11.1608 4.80002C11.1608 3.00802 9.73478 1.47202 7.93678 1.47202C6.20078 1.47202 4.71278 2.94402 4.71278 4.80002C4.71278 5.05602 4.71278 6.14402 4.71278 6.46402C4.71278 7.74402 5.45678 8.83201 6.51078 9.40801V11.072C3.65878 11.712 1.55078 14.336 1.55078 17.536H11.2848" stroke="black" stroke-width="2" stroke-miterlimit="10"/>
</g>
<defs>
<clipPath id="clip0">
<rect width="31" height="32" fill="white"/>
</clipPath>
</defs>
</svg>
