<svg width="20" height="20" viewBox="0 0 20 20" fill="none" xmlns="http://www.w3.org/2000/svg">
<path d="M19.322 7.25261C19.155 6.75093 18.7244 6.38407 18.2063 6.3039L13.1596 5.52647L10.9664 0.811447C10.7362 0.315833 10.2412 0 9.697 0C9.15462 0 8.66022 0.317047 8.43003 0.811447L6.2356 5.52647L1.18895 6.3039C0.67026 6.38347 0.239634 6.75093 0.0726073 7.25261C-0.0944196 7.75491 0.0319135 8.30883 0.398158 8.68601L4.09583 12.5112L3.23762 17.8142C3.15137 18.3487 3.37488 18.8844 3.8128 19.1972C4.05392 19.3672 4.33635 19.4547 4.61938 19.4547C4.85261 19.4547 5.08463 19.3952 5.2966 19.2779L9.69579 16.826L12.5917 18.4392V16.215L9.69579 14.6006L5.33244 17.0331L6.16939 11.8601L5.49278 11.1592L2.5033 8.0677L7.55845 7.28906L7.99758 6.34642L9.697 2.69369L11.8349 7.28906L16.8919 8.06831L13.2246 11.8601L13.6698 14.6115H15.6389L15.2988 12.5112L18.9983 8.68601C19.3627 8.30822 19.4878 7.7543 19.3208 7.2514L19.322 7.25261Z" fill="black"/>
</svg>
