<svg width="17" height="19" viewBox="0 0 17 19" fill="none" xmlns="http://www.w3.org/2000/svg">
<path d="M3.66002 14.6412V12.8101H9.15006V14.6412H3.66002ZM3.66002 9.15006H12.8101V10.9801H3.66002V9.15006ZM12.8101 14.6412V18.3001H0V1.83001C0 0.820074 0.820074 0 1.83001 0H14.6401C15.65 0 16.4701 0.820074 16.4701 1.83001V7.32005H1.83001V16.4713H10.9801V12.8101H16.4701V14.6412H12.8101ZM14.6401 5.49004V1.83001H1.83001V5.49004H14.6401ZM4.57503 4.57503H2.74502V2.74502H4.57503V4.57503ZM7.32005 4.57503H5.49004V2.74502H7.32005V4.57503ZM10.0651 4.57503H8.23505V2.74502H10.0651V4.57503ZM14.6401 9.15006H16.4701V10.9801H14.6401V9.15006Z" fill="black"/>
</svg>
