<svg width="17" height="24" viewBox="0 0 17 24" fill="none" xmlns="http://www.w3.org/2000/svg">
<path d="M8.12542 0.799805C3.78209 0.799805 0.242676 4.52261 0.242676 9.08884C0.242676 12.3439 2.11037 15.9132 3.91852 18.7646C5.72667 21.616 7.53741 23.7246 7.53741 23.7246C7.61131 23.8106 7.70156 23.8794 7.80231 23.9264C7.90307 23.9735 8.01209 23.9979 8.12234 23.9979C8.2326 23.9979 8.34162 23.9735 8.44238 23.9264C8.54313 23.8794 8.63338 23.8106 8.70728 23.7246C8.70728 23.7246 10.518 21.616 12.3262 18.7646C14.1343 15.9132 16.002 12.3439 16.002 9.08884C16.002 4.52261 12.4688 0.799805 8.12542 0.799805ZM8.12542 2.45696C11.6169 2.45696 14.4258 5.41818 14.4258 9.08884C14.4258 11.6337 12.7546 15.1055 11.0162 17.8469C9.5704 20.1269 8.57109 21.279 8.12542 21.8167C7.68072 21.2802 6.6798 20.1284 5.23308 17.8469C3.49468 15.1055 1.81892 11.6337 1.81892 9.08884C1.81892 5.41818 4.63395 2.45696 8.12542 2.45696ZM8.12542 5.773C6.39369 5.773 4.9714 7.26823 4.9714 9.08884C4.9714 10.9094 6.39369 12.403 8.12542 12.403C9.85716 12.403 11.2779 10.9094 11.2779 9.08884C11.2779 7.26823 9.85716 5.773 8.12542 5.773ZM8.12542 7.42997C9.00529 7.42997 9.70166 8.1638 9.70166 9.08884C9.70166 10.0139 9.00529 10.7458 8.12542 10.7458C7.24556 10.7458 6.54918 10.0139 6.54918 9.08884C6.54918 8.1638 7.24556 7.42997 8.12542 7.42997Z" fill="black"/>
</svg>
