<svg width="19" height="19" viewBox="0 0 19 19" fill="none" xmlns="http://www.w3.org/2000/svg">
<path fill-rule="evenodd" clip-rule="evenodd" d="M9.36973 0.520996C6.91631 0.520996 6.60841 0.531724 5.64481 0.575575C4.68309 0.619615 4.02663 0.771872 3.45223 0.995269C2.85808 1.22601 2.35407 1.53466 1.85194 2.03698C1.34943 2.5391 1.04078 3.04311 0.80929 3.63708C0.585328 4.21167 0.432883 4.86831 0.389596 5.82966C0.346497 6.79326 0.335205 7.10135 0.335205 9.55477C0.335205 12.0082 0.346121 12.3152 0.389784 13.2788C0.434012 14.2405 0.586269 14.8969 0.809478 15.4713C1.0404 16.0655 1.34906 16.5695 1.85137 17.0716C2.35331 17.5741 2.85732 17.8835 3.4511 18.1143C4.02588 18.3377 4.68252 18.4899 5.64405 18.534C6.60766 18.5778 6.91537 18.5885 9.3686 18.5885C11.8222 18.5885 12.1292 18.5778 13.0928 18.534C14.0545 18.4899 14.7117 18.3377 15.2865 18.1143C15.8805 17.8835 16.3837 17.5741 16.8856 17.0716C17.3882 16.5695 17.6968 16.0655 17.9283 15.4715C18.1504 14.8969 18.3028 14.2403 18.348 13.2789C18.3913 12.3153 18.4026 12.0082 18.4026 9.55477C18.4026 7.10135 18.3913 6.79345 18.348 5.82985C18.3028 4.86812 18.1504 4.21167 17.9283 3.63727C17.6968 3.04311 17.3882 2.5391 16.8856 2.03698C16.3831 1.53447 15.8806 1.22582 15.2859 0.995269C14.71 0.771872 14.0532 0.619615 13.0915 0.575575C12.1279 0.531724 11.8211 0.520996 9.36691 0.520996H9.36973ZM8.55944 2.14897C8.79996 2.1486 9.06834 2.14897 9.36984 2.14897C11.7819 2.14897 12.0677 2.15763 13.0202 2.20092C13.901 2.24119 14.3791 2.38837 14.6975 2.51202C15.1191 2.67575 15.4197 2.87149 15.7356 3.18767C16.0518 3.50385 16.2476 3.80498 16.4117 4.22655C16.5353 4.54462 16.6827 5.02265 16.7228 5.90345C16.7661 6.85576 16.7755 7.14183 16.7755 9.55272C16.7755 11.9636 16.7661 12.2497 16.7228 13.202C16.6825 14.0828 16.5353 14.5608 16.4117 14.8789C16.2479 15.3005 16.0518 15.6006 15.7356 15.9166C15.4195 16.2328 15.1193 16.4286 14.6975 16.5923C14.3794 16.7165 13.901 16.8633 13.0202 16.9036C12.0679 16.9469 11.7819 16.9563 9.36984 16.9563C6.95764 16.9563 6.67175 16.9469 5.71944 16.9036C4.83865 16.8629 4.36061 16.7157 4.04198 16.5921C3.62041 16.4284 3.31928 16.2326 3.0031 15.9164C2.68692 15.6003 2.49119 15.2999 2.32707 14.8781C2.20342 14.5601 2.05606 14.082 2.01597 13.2012C1.97269 12.2489 1.96403 11.9629 1.96403 9.55046C1.96403 7.13806 1.97269 6.8535 2.01597 5.90119C2.05625 5.0204 2.20342 4.54236 2.32707 4.22392C2.49081 3.80234 2.68692 3.50122 3.0031 3.18503C3.31928 2.86885 3.62041 2.67312 4.04198 2.50901C4.36043 2.38479 4.83865 2.23799 5.71944 2.19753C6.55281 2.15989 6.87577 2.1486 8.55944 2.14671V2.14897ZM14.1918 3.64915C13.5933 3.64915 13.1077 4.13415 13.1077 4.73283C13.1077 5.33132 13.5933 5.81688 14.1918 5.81688C14.7903 5.81688 15.2758 5.33132 15.2758 4.73283C15.2758 4.13434 14.7903 3.64878 14.1918 3.64878V3.64915ZM9.36964 4.9161C6.80762 4.9161 4.73042 6.9933 4.73042 9.55532C4.73042 12.1173 6.80762 14.1936 9.36964 14.1936C11.9317 14.1936 14.0081 12.1173 14.0081 9.55532C14.0081 6.9933 11.9315 4.9161 9.36945 4.9161H9.36964ZM9.36956 6.54345C11.0325 6.54345 12.3808 7.89155 12.3808 9.55471C12.3808 11.2177 11.0325 12.566 9.36956 12.566C7.7064 12.566 6.3583 11.2177 6.3583 9.55471C6.3583 7.89155 7.7064 6.54345 9.36956 6.54345Z" fill="#303030"/>
</svg>
