<svg width="20" height="16" viewBox="0 0 20 16" fill="none" xmlns="http://www.w3.org/2000/svg">
<path d="M19.6262 1.83554C18.9205 2.14683 18.1686 2.35316 17.3847 2.45335C18.1912 1.96912 18.8067 1.20819 19.096 0.291015C18.3442 0.741849 17.514 1.0603 16.6293 1.23801C15.9154 0.473495 14.8978 0 13.7878 0C11.6341 0 9.90027 1.75802 9.90027 3.91319C9.90027 4.22329 9.92636 4.52146 9.9904 4.80532C6.75634 4.64669 3.89467 3.08786 1.97226 0.713225C1.63664 1.29883 1.43977 1.96912 1.43977 2.69069C1.43977 4.04558 2.13355 5.24661 3.16769 5.94195C2.5427 5.93002 1.92957 5.74754 1.41012 5.4601C1.41012 5.47203 1.41012 5.48754 1.41012 5.50304C1.41012 7.40418 2.75854 8.98329 4.52677 9.34706C4.21013 9.43412 3.86502 9.47587 3.50687 9.47587C3.25782 9.47587 3.0064 9.46156 2.7704 9.40908C3.27442 10.9584 4.70467 12.0974 6.4053 12.1344C5.08179 13.1756 3.40132 13.8029 1.58209 13.8029C1.26307 13.8029 0.957096 13.7886 0.651123 13.7493C2.37429 14.8668 4.41648 15.5049 6.61877 15.5049C13.7771 15.5049 17.6907 9.54147 17.6907 4.37238C17.6907 4.19944 17.6848 4.03246 17.6765 3.86668C18.4485 3.31566 19.0972 2.62748 19.6262 1.83554Z" fill="#303030"/>
</svg>
