<svg width="23" height="13" viewBox="0 0 23 13" fill="none" xmlns="http://www.w3.org/2000/svg">
<path fill-rule="evenodd" clip-rule="evenodd" d="M12.5618 12.3065C12.5618 12.3065 12.9492 12.2639 13.1476 12.053C13.3292 11.8598 13.3229 11.4952 13.3229 11.4952C13.3229 11.4952 13.2988 9.79266 14.0976 9.54128C14.885 9.29405 15.8959 11.1877 16.9688 11.9159C17.7792 12.4664 18.3944 12.3459 18.3944 12.3459L21.2613 12.3065C21.2613 12.3065 22.7604 12.2151 22.0497 11.0485C21.9909 10.953 21.635 10.1853 19.9186 8.60847C18.1204 6.95788 18.3618 7.22484 20.5264 4.36928C21.845 2.6304 22.3719 1.56878 22.2071 1.11484C22.0507 0.68064 21.0807 0.795943 21.0807 0.795943L17.8537 0.815679C17.8537 0.815679 17.6144 0.783478 17.437 0.888393C17.2638 0.99123 17.1514 1.23118 17.1514 1.23118C17.1514 1.23118 16.6412 2.57638 15.9599 3.7211C14.5228 6.13518 13.9486 6.26295 13.7134 6.11337C13.1665 5.7633 13.303 4.70896 13.303 3.96001C13.303 1.61968 13.662 0.644284 12.6049 0.391865C12.2543 0.307725 11.996 0.252671 11.0985 0.243322C9.94685 0.231895 8.97267 0.247477 8.42049 0.514439C8.05307 0.692067 7.76963 1.08887 7.94284 1.11173C8.15594 1.13977 8.63884 1.24053 8.89498 1.5854C9.22566 2.03103 9.21411 3.03032 9.21411 3.03032C9.21411 3.03032 9.40412 5.78512 8.77006 6.12687C8.33545 6.36163 7.73919 5.88276 6.45741 3.69201C5.80131 2.57015 5.30582 1.32987 5.30582 1.32987C5.30582 1.32987 5.21029 1.09822 5.03917 0.973571C4.83237 0.822951 4.54368 0.776207 4.54368 0.776207L1.4773 0.795943C1.4773 0.795943 1.01645 0.808408 0.847438 1.00681C0.697321 1.18236 0.83589 1.54697 0.83589 1.54697C0.83589 1.54697 3.23672 7.10538 5.95562 9.90692C8.44883 12.4747 11.279 12.3065 11.279 12.3065H12.5618Z" fill="#303030"/>
</svg>
