<svg width="19" height="13" viewBox="0 0 19 13" fill="none" xmlns="http://www.w3.org/2000/svg">
<path d="M17.8459 1.23485C17.3432 0.335506 16.7977 0.170083 15.6868 0.107175C14.5771 0.0314537 11.7867 0 9.36929 0C6.94722 0 4.15565 0.0314537 3.04713 0.106011C1.93861 0.170083 1.39188 0.334341 0.884531 1.23485C0.366757 2.13302 0.100342 3.68008 0.100342 6.40373C0.100342 6.40606 0.100342 6.40723 0.100342 6.40723C0.100342 6.40956 0.100342 6.41072 0.100342 6.41072V6.41305C0.100342 9.12506 0.366757 10.6838 0.884531 11.5726C1.39188 12.472 1.93745 12.6351 3.04597 12.7108C4.15565 12.776 6.94722 12.8145 9.36929 12.8145C11.7867 12.8145 14.5771 12.776 15.688 12.7119C16.7988 12.6362 17.3444 12.4731 17.8471 11.5738C18.3695 10.6849 18.6336 9.12622 18.6336 6.41422C18.6336 6.41422 18.6336 6.41072 18.6336 6.40839C18.6336 6.40839 18.6336 6.40606 18.6336 6.4049C18.6336 3.68008 18.3695 2.13302 17.8459 1.23485ZM7.05032 9.90208V2.91238L12.842 6.40723L7.05032 9.90208Z" fill="#303030"/>
</svg>
