<svg width="33" height="34" viewBox="0 0 33 34" fill="none" xmlns="http://www.w3.org/2000/svg">
<path d="M17.9496 3.22708L17.9496 15.0065L30.29 15.0065C31.5285 15.0065 32.5337 16.0117 32.5337 17.2502C32.5337 18.4888 31.5285 19.4939 30.29 19.4939L17.9496 19.4939L17.9496 31.2734C17.9496 32.5119 16.9445 33.5171 15.7059 33.5171C14.4674 33.5171 13.4622 32.5119 13.4622 31.2734L13.4622 19.4939L2.2437 19.4939C1.00518 19.4939 -6.56909e-07 18.4888 -7.11047e-07 17.2502C-7.65184e-07 16.0117 1.00518 15.0065 2.2437 15.0065L13.4622 15.0065L13.4622 3.22708C13.4622 1.98856 14.4674 0.983375 15.7059 0.983375C16.9445 0.983375 17.9496 1.98856 17.9496 3.22708Z" fill="#B0B0B0"/>
</svg>
