<svg width="16" height="21" viewBox="0 0 16 21" fill="none" xmlns="http://www.w3.org/2000/svg">
<path d="M14.3215 20.3002H16.1116V18.5101H14.3215V20.3002ZM14.3215 2.39929H12.5313V1.50329C12.5313 1.01037 12.1301 0.60791 11.6359 0.60791C11.1412 0.60791 10.7406 1.00976 10.7406 1.50329V2.39929H5.3701V1.50329C5.3701 1.01037 4.96887 0.60791 4.47472 0.60791C3.97995 0.60791 3.57933 1.00976 3.57933 1.50329V2.39929H1.78918C0.80087 2.39929 -0.000976562 3.20053 -0.000976562 4.18945V18.5101C-0.000976562 19.499 0.80087 20.3002 1.78918 20.3002H12.5307V18.5101H1.78918V4.18945H3.57933V5.0836C3.57933 5.57776 3.97933 5.97899 4.47472 5.97899C4.96887 5.97899 5.3701 5.57776 5.3701 5.0836V4.18945H10.7406V5.0836C10.7406 5.57776 11.1406 5.97899 11.6359 5.97899C12.1301 5.97899 12.5313 5.57776 12.5313 5.0836V4.18945H14.3215V16.7199H16.1116V4.18945C16.1116 3.20053 15.3098 2.39929 14.3215 2.39929ZM4.47533 16.7199H6.26548V14.9298H4.47533V16.7199ZM8.95041 16.7199V14.9298H7.16025V16.7199H8.95041ZM9.84579 16.7199H11.6359V14.9298H9.84579V16.7199ZM8.95041 12.2442H4.47472V14.0344H8.95041V12.2442ZM11.6359 12.2442H9.84579V14.0344H11.6359V12.2442ZM8.95041 9.55991H4.47472V11.3494H8.95041V9.55991ZM11.6359 9.55991H9.84579V11.3494H11.6359V9.55991Z" fill="black"/>
</svg>
