<svg width="28" height="28" viewBox="0 0 28 28" fill="none" xmlns="http://www.w3.org/2000/svg">
<circle cx="14" cy="14" r="13.25" stroke="#CD0707" stroke-width="1.5"/>
<path d="M13.1314 17.0742C13.1314 16.5478 13.2714 16.0886 13.5514 15.6966C13.8314 15.2934 14.2458 14.8342 14.7946 14.319C15.3322 13.815 15.7354 13.3782 16.0042 13.0086C16.273 12.6278 16.4074 12.191 16.4074 11.6982C16.4074 11.0374 16.189 10.5278 15.7522 10.1694C15.3154 9.811 14.7442 9.63179 14.0386 9.63179C13.4562 9.63179 12.9802 9.755 12.6106 10.0014C12.241 10.2478 11.9722 10.5558 11.8042 10.9254C11.6474 11.295 11.569 11.6702 11.569 12.051V12.1182H10.1074V12.051C10.1074 11.323 10.2642 10.6734 10.5778 10.1022C10.9026 9.531 11.3618 9.083 11.9554 8.7582C12.549 8.4334 13.2434 8.271 14.0386 8.271C14.8114 8.271 15.4834 8.4166 16.0546 8.7078C16.637 8.999 17.085 9.4022 17.3986 9.9174C17.7122 10.4214 17.869 10.9926 17.869 11.631C17.869 12.0902 17.7794 12.5102 17.6002 12.891C17.4322 13.2718 17.2194 13.6022 16.9618 13.8822C16.7154 14.1622 16.3906 14.4926 15.9874 14.8734C15.5058 15.3214 15.1474 15.7022 14.9122 16.0158C14.677 16.3294 14.5594 16.6822 14.5594 17.0742V17.2086H13.1314V17.0742ZM13.8538 20.451C13.585 20.451 13.361 20.3614 13.1818 20.1822C13.0138 20.003 12.9298 19.779 12.9298 19.5102C12.9298 19.2526 13.0138 19.0342 13.1818 18.855C13.361 18.6758 13.585 18.5862 13.8538 18.5862C14.1114 18.5862 14.3298 18.6758 14.509 18.855C14.6882 19.0342 14.7778 19.2526 14.7778 19.5102C14.7778 19.7678 14.6882 19.9918 14.509 20.1822C14.3298 20.3614 14.1114 20.451 13.8538 20.451Z" fill="#CD0707"/>
</svg>
